<svg width="12" height="12" viewBox="0 0 12 12" fill="none" xmlns="http://www.w3.org/2000/svg">
<path d="M6.0002 0C6.20938 0 6.40037 0.121866 6.49132 0.316382L8.0511 3.62785L11.5345 4.1575C11.7391 4.18797 11.9096 4.33561 11.9733 4.5395C12.037 4.74339 11.9847 4.96369 11.8391 5.11368L9.31303 7.69629L9.90874 11.3429C9.94285 11.5538 9.85872 11.7671 9.68819 11.8936C9.51766 12.0202 9.29484 12.0342 9.11294 11.9335L5.99792 10.218L2.88746 11.9311C2.70328 12.0319 2.48046 12.0178 2.3122 11.8913C2.14394 11.7647 2.05754 11.5515 2.09165 11.3406L2.68737 7.69395L0.161249 5.11368C0.0134568 4.96369 -0.0365653 4.74105 0.0270992 4.5395C0.0907637 4.33795 0.261294 4.19031 0.46593 4.1575L3.94929 3.62785L5.50907 0.316382C5.60229 0.121866 5.79101 0 6.0002 0ZM6.0002 1.85142L4.80649 4.38717C4.72691 4.55356 4.57457 4.67074 4.39494 4.69886L1.70511 5.10665L3.65825 7.10103C3.78331 7.22992 3.84242 7.41272 3.81287 7.59318L3.3513 10.3984L5.74327 9.08135C5.9047 8.99229 6.09797 8.99229 6.25713 9.08135L8.6491 10.3984L8.1898 7.59552C8.16024 7.41507 8.21709 7.23227 8.34442 7.10337L10.2976 5.10899L7.60773 4.69886C7.43037 4.67074 7.27576 4.55591 7.19618 4.38717L6.0002 1.85142Z" fill="white"/>
</svg>
